<svg xmlns="http://www.w3.org/2000/svg" xmlns:xlink="http://www.w3.org/1999/xlink" width="300" zoomAndPan="magnify" viewBox="0 0 224.87999 225" height="300" preserveAspectRatio="xMidYMid meet" version="1.0"><defs><clipPath id="019699c71b"><path d="M 22.488281 22.546875 L 202.390625 22.546875 L 202.390625 202.453125 L 22.488281 202.453125 Z M 22.488281 22.546875 " clip-rule="nonzero"/></clipPath><clipPath id="2f448714bc"><path d="M 117 37 L 193 37 L 193 148 L 117 148 Z M 117 37 " clip-rule="nonzero"/></clipPath><clipPath id="c6465ce73e"><path d="M 131.597656 26.949219 L 202.550781 51.128906 L 165.796875 158.976562 L 94.84375 134.796875 Z M 131.597656 26.949219 " clip-rule="nonzero"/></clipPath><clipPath id="fcbb18e422"><path d="M 131.597656 26.949219 L 202.550781 51.128906 L 165.796875 158.976562 L 94.84375 134.796875 Z M 131.597656 26.949219 " clip-rule="nonzero"/></clipPath><clipPath id="378cd932f7"><path d="M 132 51 L 178 51 L 178 97 L 132 97 Z M 132 51 " clip-rule="nonzero"/></clipPath><clipPath id="edd4553632"><path d="M 131.597656 26.949219 L 202.550781 51.128906 L 165.796875 158.976562 L 94.84375 134.796875 Z M 131.597656 26.949219 " clip-rule="nonzero"/></clipPath><clipPath id="31a267a3b1"><path d="M 131.597656 26.949219 L 202.550781 51.128906 L 165.796875 158.976562 L 94.84375 134.796875 Z M 131.597656 26.949219 " clip-rule="nonzero"/></clipPath></defs><g clip-path="url(#019699c71b)"><path fill="#5b09e1" d="M 188.957031 65.164062 C 188.964844 65.144531 188.972656 65.132812 188.976562 65.121094 C 189.085938 64.835938 188.941406 64.515625 188.652344 64.40625 C 188.59375 64.382812 188.539062 64.417969 188.476562 64.414062 C 172.496094 39.308594 144.4375 22.601562 112.535156 22.601562 C 92.074219 22.601562 73.195312 29.480469 58.058594 41.027344 C 57.882812 41.0625 57.761719 41.167969 57.683594 41.324219 C 36.332031 57.796875 22.542969 83.609375 22.542969 112.597656 C 22.542969 162.21875 62.914062 202.585938 112.535156 202.585938 C 162.152344 202.585938 202.523438 162.214844 202.523438 112.597656 C 202.523438 95.195312 197.542969 78.945312 188.957031 65.164062 Z M 186.992188 156.882812 C 181.867188 159.96875 175.664062 162.664062 168.632812 164.910156 C 170.585938 156.265625 171.765625 148.085938 172.304688 140.335938 C 179.765625 137.867188 186.242188 134.902344 191.453125 131.546875 C 191.652344 137.671875 191.5 143.566406 191.121094 149.085938 C 189.875 151.757812 188.5 154.363281 186.992188 156.882812 Z M 76.066406 190.570312 C 74.035156 188.503906 72.144531 186.394531 70.382812 184.234375 C 75.96875 185.761719 82.539062 187.230469 89.816406 188.351562 C 91.890625 191.726562 94.308594 194.914062 97.113281 197.863281 C 89.75 196.535156 82.710938 194.28125 76.117188 191.21875 C 76.238281 191.003906 76.246094 190.746094 76.066406 190.570312 Z M 74.382812 190.394531 C 68.933594 187.707031 63.808594 184.460938 59.074219 180.734375 C 61.71875 181.664062 64.925781 182.695312 68.582031 183.730469 C 70.371094 186 72.300781 188.222656 74.382812 190.394531 Z M 69.230469 182.765625 C 65.074219 177.457031 61.722656 171.894531 59.171875 166.078125 C 66.207031 168.289062 74.066406 170.046875 82.445312 171.316406 C 84.019531 176.890625 86.191406 182.191406 89.0625 187.113281 C 81.5625 185.921875 74.859375 184.347656 69.230469 182.765625 Z M 32.152344 128.632812 C 32.15625 135.890625 33.078125 143.542969 35.160156 151.570312 C 30.714844 142.777344 27.722656 133.140625 26.503906 122.960938 C 28.011719 124.9375 29.90625 126.824219 32.152344 128.632812 Z M 37.113281 154.527344 C 34.523438 145.730469 33.351562 137.390625 33.277344 129.503906 C 38.171875 133.183594 44.546875 136.453125 52.074219 139.203125 C 52.324219 147.96875 54.039062 156.332031 57.195312 164.261719 C 49.199219 161.570312 42.347656 158.296875 37.113281 154.527344 Z M 38.042969 100.726562 C 43.015625 103.980469 49.257812 106.875 56.449219 109.3125 C 53.933594 117.53125 52.328125 125.972656 52.066406 134.476562 C 52.03125 135.621094 52.03125 136.761719 52.042969 137.890625 C 44.449219 135.078125 38.058594 131.753906 33.257812 128.035156 C 33.328125 118.195312 35.113281 109.078125 38.042969 100.726562 Z M 33.945312 76.113281 C 35.808594 73.132812 37.839844 70.320312 39.992188 67.65625 C 41.910156 70.890625 45.085938 73.902344 49.292969 76.625 C 44.640625 83.320312 40.519531 90.808594 37.480469 99.050781 C 33.652344 96.382812 30.6875 93.484375 28.753906 90.40625 C 30.066406 85.453125 31.8125 80.675781 33.945312 76.113281 Z M 38.148438 68.175781 C 38.515625 67.558594 38.902344 66.957031 39.285156 66.351562 C 39.328125 66.441406 39.371094 66.53125 39.410156 66.621094 C 38.988281 67.136719 38.558594 67.644531 38.148438 68.175781 Z M 67.359375 38.660156 C 67.507812 38.632812 67.695312 38.617188 68.023438 38.605469 C 68.785156 38.566406 68.128906 38.914062 68.023438 39.191406 C 67.921875 39.46875 67.195312 40.367188 66.742188 40.78125 C 66.292969 41.195312 65.984375 41.472656 65.671875 42.472656 C 65.363281 43.476562 65.671875 43.234375 65.984375 42.644531 C 66.292969 42.058594 66.949219 41.574219 68.09375 40.710938 C 69.230469 39.847656 68.851562 40.296875 69.441406 40.019531 C 70.027344 39.742188 70.476562 39.46875 71.238281 39.050781 C 72 38.636719 71.617188 38.777344 72.171875 38.152344 C 72.722656 37.53125 73.070312 37.601562 73.726562 37.078125 C 74.382812 36.5625 74.726562 36.492188 75.003906 36.214844 C 75.28125 35.941406 75.421875 35.835938 75.734375 35.386719 C 76.042969 34.9375 76.460938 34.871094 76.839844 34.316406 C 77.21875 33.761719 77.425781 33.761719 77.742188 33.347656 C 77.78125 33.292969 77.785156 33.253906 77.8125 33.207031 C 79.488281 32.472656 81.1875 31.769531 82.917969 31.140625 C 83.363281 31.976562 83.996094 32.78125 84.804688 33.546875 C 81.65625 34.945312 78.363281 36.535156 75 38.324219 C 74.898438 38.347656 74.792969 38.371094 74.660156 38.394531 C 74.359375 38.445312 74.5 38.425781 74.261719 38.714844 C 73.011719 39.386719 71.753906 40.09375 70.492188 40.828125 C 70.222656 40.90625 69.949219 41.167969 69.546875 41.300781 C 69.128906 41.4375 69.058594 41.574219 68.644531 41.851562 C 68.613281 41.871094 68.628906 41.917969 68.605469 41.941406 C 65.929688 43.546875 63.246094 45.269531 60.582031 47.140625 C 59.964844 46.238281 59.5 45.308594 59.183594 44.363281 C 61.796875 42.316406 64.519531 40.402344 67.359375 38.660156 Z M 68.703125 43.160156 C 68.75 43.375 68.777344 43.578125 68.714844 43.71875 C 68.503906 44.203125 68.714844 43.71875 68.230469 43.785156 C 67.820312 43.84375 67.683594 43.957031 67.160156 44.113281 C 67.679688 43.789062 68.195312 43.472656 68.703125 43.160156 Z M 152.175781 37.25 C 152.703125 37.78125 153.203125 38.25 153.5625 38.394531 C 154.253906 38.671875 154.804688 39.085938 155.429688 39.570312 C 156.050781 40.058594 159.648438 44.410156 159.648438 44.410156 C 159.648438 44.410156 159.855469 47.316406 162.136719 47.9375 C 163.703125 48.367188 164.722656 48.792969 165.378906 49.171875 C 164.304688 50.277344 163.011719 51.339844 161.511719 52.347656 C 160.070312 50.878906 158.632812 49.488281 157.214844 48.199219 C 151.453125 42.960938 145.585938 38.84375 140.140625 35.589844 C 141.113281 35 141.980469 34.375 142.714844 33.722656 C 145.933594 34.8125 149.140625 35.992188 152.175781 37.25 Z M 167.671875 49.664062 C 168.914062 49.320312 168.84375 49.734375 170.296875 50.636719 C 171.75 51.535156 171.542969 51.121094 172.164062 52.710938 C 172.789062 54.300781 172.921875 53.195312 172.921875 55.265625 C 172.921875 57.34375 174.371094 58.65625 174.167969 60.039062 C 173.960938 61.421875 174.757812 62.324219 174.191406 63.496094 C 173.613281 64.671875 172.714844 65.085938 173.273438 65.78125 C 173.824219 66.472656 173.546875 66.332031 174.863281 66.609375 C 176.171875 66.886719 178.734375 67.507812 179.425781 68.058594 C 180.117188 68.613281 180.328125 69.582031 179.976562 70.066406 C 179.632812 70.546875 179.355469 70.480469 177.628906 71.65625 C 177.257812 71.902344 176.945312 72.074219 176.652344 72.226562 C 174.988281 69.390625 173.253906 66.71875 171.46875 64.230469 C 171.859375 64.003906 172.199219 63.707031 172.324219 63.316406 C 172.464844 62.898438 172.050781 63.175781 172.324219 62.4375 C 172.605469 61.699219 172.371094 62.300781 172.605469 61.699219 C 172.835938 61.101562 172.878906 60.824219 172.878906 60.824219 C 172.878906 60.824219 173.246094 60.5 173.335938 60.316406 C 173.433594 60.132812 173.472656 60.042969 173.335938 59.441406 C 173.203125 58.839844 173.335938 59.023438 172.921875 58.566406 C 172.503906 58.105469 172.273438 57.917969 171.90625 57.78125 C 171.542969 57.644531 171.351562 57.550781 171.121094 57.507812 C 170.894531 57.460938 170.894531 57.644531 170.480469 57.367188 C 170.0625 57.09375 169.949219 56.953125 169.453125 56.8125 C 168.957031 56.675781 169.007812 56.722656 168.402344 56.445312 C 167.800781 56.167969 167.574219 56.027344 167.34375 55.9375 C 167.113281 55.847656 167.753906 56.398438 167.113281 55.847656 C 166.46875 55.292969 166.65625 55.519531 166.46875 55.292969 C 166.28125 55.0625 166.417969 55.429688 166.007812 54.738281 C 165.589844 54.046875 165.589844 54.046875 165.589844 54.046875 L 164.988281 53.722656 C 164.988281 53.722656 165.179688 53.453125 164.71875 53.539062 C 164.527344 53.574219 164.300781 53.722656 164.023438 53.539062 C 163.75 53.355469 163.609375 52.890625 163.46875 53.078125 C 163.351562 53.242188 162.859375 53.386719 162.988281 53.894531 C 162.738281 53.632812 162.492188 53.367188 162.246094 53.109375 C 163.785156 52.066406 165.121094 50.96875 166.238281 49.824219 C 166.550781 50.109375 166.589844 49.96875 167.671875 49.664062 Z M 182.746094 68.960938 C 182.46875 68.339844 182.46875 66.886719 183.714844 66.816406 C 184.589844 66.769531 185.757812 67.363281 186.386719 67.722656 C 185.566406 68.964844 184.554688 70.179688 183.355469 71.351562 C 183.261719 69.785156 183.003906 69.542969 182.746094 68.960938 Z M 183.933594 90.34375 C 184.015625 91.132812 183.851562 92.039062 183.851562 92.609375 C 183.851562 93.234375 183.160156 93.992188 182.882812 95.308594 C 182.605469 96.621094 182.050781 95.929688 182.050781 98.558594 C 182.050781 99.867188 181.972656 101.859375 182.113281 103.808594 C 178.710938 105.464844 174.945312 107 170.851562 108.382812 C 169.300781 99.195312 166.855469 90.917969 163.90625 83.535156 C 169.195312 81.683594 173.835938 79.535156 177.679688 77.148438 C 178.089844 77.703125 178.421875 78.242188 178.59375 78.917969 C 178.804688 79.75 179.078125 80.234375 179.566406 80.511719 C 179.671875 80.570312 179.769531 80.59375 179.875 80.605469 C 181.398438 83.820312 182.753906 87.074219 183.933594 90.34375 Z M 141.628906 135.578125 C 141.484375 135.527344 141.363281 135.492188 141.1875 135.417969 C 140.015625 134.933594 139.734375 135.757812 139.734375 135.144531 C 139.734375 134.515625 139.734375 134.726562 139.390625 134.242188 C 139.039062 133.757812 138.417969 133.617188 137.519531 133.269531 C 136.621094 132.921875 136.964844 133.203125 136.621094 133.203125 C 136.273438 133.203125 135.863281 133.40625 135.101562 132.789062 C 134.339844 132.167969 135.101562 132.789062 135.03125 132.582031 C 134.960938 132.375 135.375 131.953125 135.375 131.953125 C 135.375 131.953125 135.375 131.953125 134.960938 131.953125 C 134.546875 131.953125 134.410156 131.683594 134.132812 131.402344 C 133.855469 131.125 133.371094 130.710938 132.753906 130.710938 C 132.128906 130.710938 132.402344 130.847656 131.851562 131.058594 C 131.296875 131.265625 129.292969 131.265625 129.292969 131.265625 C 129.292969 131.265625 128.601562 131.265625 128.046875 131.265625 C 127.492188 131.265625 127.628906 131.265625 127.148438 131.265625 C 126.664062 131.265625 125.765625 131.058594 125.765625 131.058594 C 125.765625 131.058594 125.347656 130.78125 124.589844 130.507812 C 123.832031 130.234375 124.242188 130.09375 123.550781 130.023438 C 122.859375 129.953125 122.929688 130.507812 122.582031 130.992188 C 122.238281 131.476562 122.582031 130.992188 122.097656 131.265625 C 121.613281 131.542969 121.753906 132.027344 121.824219 132.234375 C 121.890625 132.445312 121.824219 133.0625 121.824219 133.0625 C 121.824219 133.0625 121.128906 133.34375 120.714844 133.132812 C 120.300781 132.925781 120.925781 131.339844 120.925781 130.78125 C 120.925781 130.234375 120.925781 130.78125 120.988281 130.296875 C 121.0625 129.8125 121.613281 129.609375 121.542969 129.398438 C 121.476562 129.191406 120.4375 129.953125 120.164062 130.023438 C 119.886719 130.09375 119.054688 130.644531 118.019531 131.402344 C 116.980469 132.164062 117.394531 131.746094 116.839844 131.886719 C 116.289062 132.027344 116.289062 132.027344 115.808594 132.714844 C 115.320312 133.40625 115.53125 133.203125 115.320312 133.339844 C 115.113281 133.476562 114.355469 135.140625 114.355469 135.140625 L 113.453125 134.863281 C 113.453125 134.863281 113.453125 134.863281 112.902344 134.304688 C 112.347656 133.753906 112.902344 132.785156 112.535156 132.371094 C 112.453125 132.285156 112.265625 132.285156 112.035156 132.328125 C 112.007812 128.789062 111.996094 125.230469 112.003906 121.664062 C 112.121094 121.707031 112.269531 121.75 112.535156 121.824219 C 113.453125 122.070312 112.902344 121.996094 113.453125 122.070312 C 114.007812 122.140625 113.730469 122.621094 114.488281 122.070312 C 115.253906 121.515625 115.253906 121.863281 115.253906 121.515625 C 115.253906 121.171875 114.351562 120.546875 113.765625 120.824219 C 113.042969 121.164062 112.207031 120.621094 112.003906 120.824219 C 112.003906 119.808594 112.007812 118.792969 112.011719 117.773438 C 112.167969 117.777344 112.324219 117.777344 112.476562 117.777344 C 112.402344 117.882812 112.328125 117.96875 112.53125 118.128906 C 112.898438 118.40625 111.398438 118.199219 112.5625 118.816406 C 113.730469 119.441406 113.65625 119.441406 114.488281 119.371094 C 115.320312 119.304688 115.316406 119.710938 116.082031 119.40625 C 116.839844 119.097656 117.53125 118.679688 117.53125 118.679688 C 117.53125 118.679688 118.429688 118.542969 117.1875 118.199219 C 116.285156 117.945312 115.679688 117.945312 115.152344 117.785156 C 124.519531 117.726562 133.597656 117.09375 142.136719 115.945312 C 142.257812 122.113281 142.101562 128.664062 141.628906 135.578125 Z M 102.25 124.144531 C 101.699219 124.007812 98.585938 124.007812 97.898438 124.007812 C 97.207031 124.007812 98.035156 122.34375 98.105469 122 C 98.171875 121.65625 98.378906 121.03125 98.519531 120.621094 C 98.664062 120.207031 98.867188 119.859375 99.070312 119.375 C 99.28125 118.894531 99.207031 118.960938 99.421875 118.476562 C 99.625 117.992188 99.765625 117.855469 99.832031 117.507812 C 99.847656 117.441406 99.859375 117.390625 99.871094 117.34375 C 103.492188 117.574219 107.179688 117.71875 110.914062 117.769531 C 110.890625 122.761719 110.898438 127.753906 110.941406 132.699219 C 110.242188 132.992188 109.507812 133.34375 109.171875 133.410156 C 108.480469 133.550781 108.0625 133.480469 107.582031 133.410156 C 107.09375 133.34375 106.128906 132.789062 105.851562 132.511719 C 105.578125 132.234375 105.160156 131.890625 105.160156 131.890625 C 105.160156 131.890625 104.742188 131.265625 104.539062 130.988281 C 104.328125 130.710938 104.402344 130.578125 104.261719 130.367188 C 104.125 130.160156 104.328125 128.707031 104.328125 128.226562 C 104.328125 127.738281 104.8125 127.324219 104.746094 127.046875 C 104.675781 126.769531 102.804688 124.28125 102.25 124.144531 Z M 94.785156 119.785156 C 94.4375 120.066406 94.023438 120.132812 93.125 120.132812 C 92.226562 120.132812 91.671875 120.132812 91.117188 120.066406 C 90.566406 119.996094 90.359375 119.925781 90.011719 119.789062 C 89.667969 119.652344 88.488281 119.515625 87.730469 118.890625 C 86.96875 118.265625 87.730469 118.890625 87.453125 118.199219 C 87.175781 117.507812 86.96875 117.226562 86.414062 116.675781 C 86.167969 116.429688 85.960938 116.183594 85.792969 115.949219 C 89.414062 116.4375 93.132812 116.832031 96.925781 117.128906 C 96.472656 117.34375 96.726562 117.433594 96.308594 117.640625 C 95.75 117.914062 95.890625 118.195312 95.128906 119.511719 C 94.367188 120.824219 95.128906 119.511719 94.785156 119.785156 Z M 171.398438 64.007812 C 171.398438 64.007812 171.375 64.035156 171.355469 64.066406 C 170.585938 63 169.8125 61.964844 169.03125 60.964844 C 168.964844 60.671875 168.929688 60.554688 168.597656 60.414062 C 167.578125 59.117188 166.539062 57.867188 165.503906 56.675781 C 166.105469 56.84375 166.148438 56.757812 166.421875 56.953125 C 166.75 57.179688 166.839844 57.6875 167.164062 57.875 C 167.488281 58.058594 168.039062 58.058594 168.5 58.148438 C 168.964844 58.242188 168.964844 58.375 169.148438 58.566406 C 169.332031 58.75 169.445312 59.164062 169.460938 59.304688 C 169.46875 59.441406 169.5625 59.875 169.699219 60.027344 C 169.839844 60.175781 169.703125 60.316406 170.070312 60.640625 C 170.4375 60.964844 170.34375 60.996094 170.855469 61.117188 C 171.363281 61.242188 171.363281 61.242188 171.363281 61.242188 C 171.363281 61.242188 171.453125 61.375 171.363281 61.929688 C 171.265625 62.488281 171.398438 64.007812 171.398438 64.007812 Z M 166.011719 58.96875 C 165.761719 59.355469 165.484375 59.746094 165.6875 60.027344 C 165.964844 60.410156 165.734375 60.6875 166.242188 61.054688 C 166.75 61.421875 166.660156 61.421875 166.886719 61.703125 C 167.117188 61.976562 166.703125 62.441406 167.164062 62.902344 C 167.625 63.363281 167.578125 63.871094 168.21875 63.59375 C 168.867188 63.320312 168.503906 63.871094 168.890625 63.039062 C 168.941406 62.925781 169 62.84375 169.050781 62.777344 C 171.5 66.011719 173.714844 69.332031 175.695312 72.707031 C 175.238281 72.941406 175.03125 73.132812 175.132812 73.59375 C 175.296875 74.304688 176.261719 75.425781 176.941406 76.214844 C 173.183594 78.523438 168.628906 80.605469 163.457031 82.410156 C 160.25 74.613281 156.507812 67.835938 152.695312 62.066406 C 151.953125 60.9375 151.195312 59.851562 150.441406 58.777344 C 154.648438 57.328125 158.296875 55.625 161.304688 53.734375 C 162.957031 55.445312 164.527344 57.191406 166.011719 58.96875 Z M 99.535156 116.214844 C 99.53125 116.214844 99.523438 116.214844 99.519531 116.214844 C 94.699219 115.894531 89.996094 115.417969 85.449219 114.800781 C 85.449219 114.773438 85.449219 114.753906 85.449219 114.667969 C 85.449219 114.460938 85.449219 113.699219 85.449219 113.011719 C 85.449219 112.320312 85.585938 111.902344 85.449219 111.210938 C 85.3125 110.523438 85.726562 110.59375 85.863281 110.246094 C 86 109.898438 86.210938 110.039062 86.96875 109.484375 C 87.730469 108.929688 86.96875 108.445312 86.832031 108.238281 C 86.695312 108.03125 86.761719 107.824219 86.761719 107.480469 C 86.761719 107.132812 87.109375 107.203125 87.109375 106.996094 C 87.109375 106.785156 89.460938 105.542969 90.707031 105.128906 C 91.949219 104.714844 91.191406 104.851562 91.949219 104.78125 C 92.707031 104.714844 92.851562 105.058594 94.386719 105.820312 C 95.914062 106.582031 95.128906 105.886719 95.683594 105.820312 C 96.238281 105.746094 96.652344 105.820312 97.136719 105.820312 C 97.617188 105.820312 97.824219 105.542969 97.894531 105.335938 C 97.964844 105.128906 97.480469 104.851562 97.480469 104.644531 C 97.480469 104.4375 98.378906 104.578125 98.792969 104.578125 C 99.203125 104.578125 99.761719 104.578125 100.523438 104.578125 C 101.28125 104.578125 101.628906 104.644531 101.976562 104.988281 C 102.320312 105.335938 102.597656 105.542969 103.425781 105.960938 C 104.253906 106.375 103.976562 106.027344 104.460938 106.027344 C 104.945312 106.027344 104.945312 106.027344 105.433594 106.027344 C 105.914062 106.027344 105.707031 106.582031 105.777344 107.203125 C 105.847656 107.828125 106.054688 108.242188 106.054688 108.242188 C 106.054688 108.242188 106.054688 108.242188 106.054688 109.070312 C 106.054688 109.898438 106.257812 109.695312 106.472656 109.832031 C 106.675781 109.964844 107.714844 111.976562 108.542969 111.839844 C 109.375 111.699219 108.957031 111.558594 109.238281 111.144531 C 109.511719 110.730469 109.582031 109.550781 109.582031 109.550781 C 109.582031 109.550781 109.097656 108.929688 108.957031 108.652344 C 108.820312 108.378906 108.542969 107.480469 108.476562 107.0625 C 108.40625 106.644531 108.339844 106.023438 108.199219 105.820312 C 108.058594 105.609375 108.199219 104.640625 108.132812 103.882812 C 108.058594 103.121094 108.40625 103.050781 108.480469 102.777344 C 108.546875 102.5 109.097656 102.085938 109.238281 101.875 C 109.375 101.667969 109.996094 101.253906 110.273438 100.835938 C 110.453125 100.570312 110.757812 100.40625 111.089844 100.242188 C 111.007812 105.398438 110.949219 110.636719 110.921875 115.894531 C 110.296875 115.613281 109.378906 115.136719 109.378906 115.136719 C 109.378906 115.136719 108.683594 114.53125 108.136719 114.394531 C 107.582031 114.253906 106.820312 114.394531 106.128906 114.394531 C 105.4375 114.394531 103.914062 114.640625 103.707031 115.136719 C 103.503906 115.636719 103.222656 116.261719 103.222656 116.261719 C 103.222656 116.261719 103.5 116.261719 103.914062 116.261719 C 104.328125 116.261719 104.328125 116.054688 104.742188 115.914062 C 105.160156 115.777344 105.089844 115.09375 105.644531 115.296875 C 106.195312 115.5 106.957031 115.023438 107.441406 115.296875 C 107.921875 115.566406 108.683594 116.261719 108.683594 116.261719 C 108.683594 116.261719 108.824219 115.914062 109.035156 116.261719 C 109.105469 116.386719 109.316406 116.515625 109.5625 116.640625 C 106.167969 116.578125 102.828125 116.429688 99.535156 116.214844 Z M 92.890625 48.214844 C 94.023438 48.078125 93.886719 47.660156 94.988281 47.316406 C 96.097656 46.96875 96.164062 46.484375 96.652344 46.761719 C 97.136719 47.035156 96.511719 47.589844 97.203125 47.730469 C 97.894531 47.867188 98.035156 48.46875 98.792969 48.273438 C 99.558594 48.078125 98.929688 48.558594 99.558594 48.078125 C 100.175781 47.589844 100.382812 48.28125 100.175781 47.589844 C 99.972656 46.902344 99.207031 46.484375 99.070312 45.863281 C 98.929688 45.242188 98.660156 45.84375 98.792969 44.988281 C 98.929688 44.136719 98.863281 43.996094 99 43.578125 C 99.140625 43.164062 99.140625 43.027344 99.140625 42.613281 C 99.140625 42.195312 99.34375 42.335938 98.242188 42.195312 C 98.167969 42.1875 98.097656 42.191406 98.023438 42.191406 C 98.515625 41.632812 98.992188 41.105469 99.46875 40.574219 C 100.492188 40.289062 99.597656 40.527344 100.589844 40.261719 C 100.847656 40.195312 100.992188 40.171875 101.078125 40.171875 C 101.121094 40.175781 101.160156 40.1875 101.203125 40.195312 C 101.222656 40.207031 101.234375 40.210938 101.261719 40.203125 C 101.882812 40.316406 102.53125 40.402344 103.175781 40.496094 C 103.140625 40.640625 103.328125 40.585938 103.539062 40.796875 C 103.773438 41.023438 103.21875 40.953125 103.773438 41.023438 C 104.324219 41.089844 103.703125 41.023438 104.324219 41.089844 C 104.949219 41.160156 104.808594 41.4375 105.226562 41.089844 C 105.273438 41.050781 105.300781 41.027344 105.339844 40.996094 C 104.511719 42.84375 103.632812 44.867188 102.730469 46.972656 C 102.417969 47.328125 102.472656 47.273438 102.570312 47.351562 C 102.039062 48.589844 101.507812 49.875 100.960938 51.191406 C 100.71875 51.207031 100.867188 50.910156 100.867188 50.910156 C 100.867188 50.910156 100.867188 50.21875 100.453125 50.007812 C 100.039062 49.804688 100.453125 50.007812 99.832031 50.148438 C 99.207031 50.289062 99.421875 50.21875 99.070312 50.078125 C 98.726562 49.941406 98.171875 49.804688 97.546875 49.457031 C 96.925781 49.109375 97.136719 49.320312 96.722656 49.109375 C 96.308594 48.902344 96.238281 48.761719 95.890625 48.28125 C 95.546875 47.796875 95.0625 48.765625 94.855469 48.902344 C 94.648438 49.042969 93.125 49.457031 93.125 49.457031 C 93.125 49.457031 93.125 49.457031 93.125 49.179688 C 93.125 48.90625 92.644531 48.90625 92.644531 48.90625 C 92.644531 48.90625 92.496094 48.941406 92.273438 48.96875 C 92.476562 48.71875 92.6875 48.464844 92.890625 48.214844 Z M 108.753906 36.804688 C 108.683594 37.429688 109.097656 37.632812 109.304688 37.667969 C 109.511719 37.707031 109.511719 38.394531 109.511719 38.394531 C 109.511719 38.394531 108.058594 39.222656 107.917969 39.019531 C 107.871094 38.9375 107.726562 38.84375 107.570312 38.746094 C 107.941406 37.921875 108.308594 37.132812 108.660156 36.375 C 108.71875 36.523438 108.769531 36.664062 108.753906 36.804688 Z M 115.046875 35.074219 C 115.253906 34.9375 115.734375 33.691406 115.808594 33.347656 C 115.875 33 115.808594 32.449219 115.808594 32.035156 C 115.808594 31.617188 115.179688 31.480469 114.695312 31.34375 C 114.609375 31.320312 114.539062 31.328125 114.464844 31.332031 C 114.5625 29.292969 114.644531 27.722656 114.695312 26.703125 C 115.472656 27.628906 116.726562 29.203125 118.269531 31.417969 C 118.089844 31.53125 117.894531 31.675781 117.785156 31.78125 C 117.648438 31.917969 116.820312 32.148438 116.769531 32.332031 C 116.726562 32.515625 116.585938 32.933594 116.585938 32.933594 C 116.585938 32.933594 116.953125 33.300781 116.585938 33.53125 C 116.21875 33.757812 116.082031 34.777344 116.261719 34.960938 C 116.445312 35.144531 116.589844 35.234375 116.492188 35.46875 C 116.402344 35.699219 115.851562 36.203125 115.710938 36.296875 C 115.570312 36.390625 115.0625 36.804688 115.015625 37.175781 C 114.972656 37.542969 115.207031 38.097656 115.34375 38.417969 C 115.480469 38.738281 115.800781 38.324219 115.757812 39.109375 C 115.734375 39.492188 115.785156 39.855469 115.9375 40.09375 C 115.308594 40.109375 114.679688 40.125 114.050781 40.125 C 114.121094 38.507812 114.1875 37.011719 114.253906 35.628906 C 114.453125 35.429688 114.875 35.1875 115.046875 35.074219 Z M 113.765625 68.683594 C 113.882812 69.199219 113.433594 69.457031 112.917969 69.679688 C 112.960938 68.332031 113.007812 67 113.050781 65.691406 C 113.488281 65.929688 113.410156 66.054688 113.765625 67.023438 C 114.144531 68.0625 113.589844 67.921875 113.765625 68.683594 Z M 107.09375 39.78125 C 107.132812 39.800781 107.15625 39.808594 107.1875 39.824219 C 107.148438 39.820312 107.121094 39.816406 107.085938 39.8125 C 107.085938 39.804688 107.089844 39.792969 107.09375 39.78125 Z M 112.890625 41.21875 C 112.863281 41.84375 112.839844 42.484375 112.804688 43.140625 C 112.714844 43.082031 112.632812 43.019531 112.535156 42.957031 C 112.097656 42.679688 111.03125 42.609375 110.203125 42.609375 C 109.375 42.609375 108.269531 43.4375 107.714844 43.785156 C 107.160156 44.132812 107.714844 43.785156 106.957031 45.515625 C 106.195312 47.242188 107.160156 46.070312 107.300781 46.757812 C 107.441406 47.449219 107.300781 46.757812 107.441406 47.105469 C 107.578125 47.453125 108.132812 47.660156 108.480469 48.347656 C 108.824219 49.042969 108.546875 48.835938 108.480469 49.457031 C 108.410156 50.078125 108.199219 50.21875 107.785156 50.839844 C 107.371094 51.460938 107.511719 51.324219 106.957031 51.53125 C 106.402344 51.738281 106.609375 51.460938 106.609375 51.460938 C 106.609375 51.460938 106.75 49.9375 106.679688 49.734375 C 106.609375 49.527344 106.679688 49.042969 106.402344 49.179688 C 106.128906 49.316406 105.78125 49.59375 105.578125 49.246094 C 105.367188 48.902344 105.4375 48.761719 105.4375 48.761719 C 105.4375 48.761719 104.746094 48.347656 104.605469 48.140625 C 104.46875 47.933594 104.746094 47.519531 104.746094 47.519531 C 104.746094 47.519531 105.164062 46.898438 105.164062 46.6875 C 105.164062 46.484375 105.164062 46 105.164062 46 L 105.023438 45.097656 L 105.023438 44.457031 C 105.074219 44.335938 105.128906 44.214844 105.179688 44.097656 L 105.644531 43.785156 L 106.683594 43.371094 L 106.890625 42.472656 L 107.304688 41.851562 C 107.304688 41.851562 109.035156 41.917969 109.308594 41.917969 C 109.585938 41.917969 111.175781 41.988281 111.457031 41.988281 C 111.714844 41.988281 111.847656 41.292969 111.859375 41.191406 C 112.203125 41.203125 112.546875 41.210938 112.890625 41.21875 Z M 113.765625 48.144531 C 114.074219 48.28125 114.214844 48.765625 114.492188 49.53125 C 114.769531 50.289062 114.628906 50.148438 114.835938 50.148438 C 115.046875 50.148438 115.460938 50.636719 115.460938 50.636719 C 115.460938 50.636719 116.496094 51.535156 116.496094 52.085938 C 116.496094 52.636719 116.292969 52.640625 115.945312 52.914062 C 115.597656 53.191406 115.460938 53.605469 115.390625 54.023438 C 115.320312 54.4375 115.667969 55.128906 115.257812 55.199219 C 114.835938 55.265625 114.835938 55.265625 113.769531 55.265625 C 113.628906 55.265625 113.515625 55.273438 113.425781 55.289062 C 113.515625 52.773438 113.613281 50.378906 113.707031 48.113281 C 113.71875 48.121094 113.753906 48.140625 113.765625 48.144531 Z M 98.808594 62.324219 C 98.804688 62.257812 98.792969 62.210938 98.792969 62.113281 C 98.792969 61.421875 99.140625 61.007812 99.347656 60.25 C 99.558594 59.488281 99.765625 59.765625 101.21875 58.65625 C 102.667969 57.550781 102.042969 58.3125 102.597656 58.171875 C 103.152344 58.035156 103.015625 58.105469 103.359375 57.34375 C 103.703125 56.582031 104.257812 56.925781 105.085938 56.511719 C 105.914062 56.101562 105.085938 56.511719 105.914062 56.101562 C 106.746094 55.683594 105.914062 56.101562 105.847656 55.339844 C 105.777344 54.578125 105.292969 54.785156 106.191406 54.785156 C 107.09375 54.785156 106.886719 54.441406 106.886719 54.441406 C 106.886719 54.441406 106.886719 54.441406 107.160156 53.953125 C 107.4375 53.46875 107.644531 54.09375 107.851562 54.09375 C 108.058594 54.09375 108.476562 54.09375 109.097656 53.746094 C 109.71875 53.398438 110.136719 53.195312 110.480469 52.917969 C 110.828125 52.640625 110.898438 52.570312 111.03125 51.878906 C 111.171875 51.191406 110.757812 51.257812 110.6875 50.773438 C 110.617188 50.289062 110.894531 50.21875 110.824219 49.804688 C 110.753906 49.390625 110.753906 49.179688 110.753906 49.179688 C 110.753906 49.179688 110.753906 48.835938 110.960938 48.351562 C 111.167969 47.867188 111.308594 48.28125 111.722656 48.078125 C 112.136719 47.871094 112.347656 48.007812 112.53125 47.730469 C 112.546875 47.703125 112.589844 47.714844 112.613281 47.703125 C 112.421875 52.328125 112.222656 57.515625 112.027344 63.128906 C 107.457031 63.070312 103.03125 62.792969 98.808594 62.324219 Z M 107.640625 40.992188 C 107.632812 41.488281 107.492188 41.4375 107.09375 41.4375 C 106.761719 41.4375 106.535156 41.550781 106.226562 41.722656 C 106.347656 41.441406 106.472656 41.171875 106.59375 40.894531 C 106.945312 40.925781 107.289062 40.96875 107.640625 40.992188 Z M 103.125 48.871094 C 103.230469 48.972656 103.332031 49.066406 103.359375 49.25 C 103.429688 49.738281 103.359375 49.25 103.152344 49.597656 C 102.945312 49.941406 102.875 50.082031 102.480469 50.417969 C 102.691406 49.894531 102.90625 49.378906 103.125 48.871094 Z M 111.996094 64.234375 C 111.929688 66.1875 111.863281 68.1875 111.796875 70.230469 C 111.480469 70.453125 111.414062 70.6875 111.3125 71.308594 C 111.171875 72.136719 111.65625 71.792969 111.589844 73.039062 C 111.515625 74.28125 111.515625 73.660156 110.964844 74.351562 C 110.410156 75.042969 110.136719 74.699219 109.71875 74.625 C 109.304688 74.558594 108.894531 73.242188 108.753906 72.34375 C 108.613281 71.445312 108.890625 71.445312 108.820312 70.546875 C 108.753906 69.648438 108.476562 69.71875 107.78125 69.234375 C 107.089844 68.746094 106.886719 68.957031 106.191406 68.746094 C 105.5 68.542969 105.433594 68.609375 104.535156 68.195312 C 103.632812 67.78125 104.394531 67.640625 103.910156 67.089844 C 103.425781 66.535156 102.9375 66.398438 102.316406 66.050781 C 101.695312 65.707031 101.214844 65.429688 100.796875 65.292969 C 100.378906 65.152344 100.3125 64.738281 100.242188 64.046875 C 100.21875 63.828125 100.148438 63.679688 100.054688 63.554688 C 103.898438 63.949219 107.890625 64.179688 111.996094 64.234375 Z M 100.660156 79.609375 C 100.9375 79.609375 101.765625 78.988281 102.878906 78.265625 C 102.878906 78.265625 102.878906 78.265625 103.289062 78.503906 C 103.707031 78.734375 103.289062 78.503906 103.222656 78.710938 C 103.152344 78.917969 103.566406 78.917969 103.914062 79.46875 C 104.261719 80.023438 106.058594 81.199219 105.917969 81.546875 C 105.78125 81.890625 105.917969 81.546875 103.566406 81.890625 C 101.21875 82.238281 103.566406 81.890625 102.878906 81.824219 C 102.179688 81.753906 102.179688 81.269531 101.765625 81.132812 C 101.351562 80.992188 101.421875 80.648438 100.589844 80.578125 C 99.765625 80.511719 100.589844 80.578125 99.832031 80.648438 C 99.070312 80.71875 99.484375 80.785156 98.863281 80.648438 C 98.242188 80.511719 98.242188 80.300781 98.242188 80.300781 C 98.242188 80.300781 100.386719 79.609375 100.660156 79.609375 Z M 124.25 62.75 C 124.023438 62.371094 123.816406 62.035156 123.546875 61.769531 C 123.136719 61.351562 123.546875 61.769531 123.066406 62.460938 C 122.582031 63.152344 123.066406 62.460938 123.175781 62.734375 C 123.183594 62.757812 123.175781 62.792969 123.164062 62.820312 C 122.1875 62.890625 121.203125 62.9375 120.210938 62.984375 C 119.925781 62.828125 119.625 62.617188 119.332031 62.320312 C 118.777344 61.765625 119.265625 61.625 119.125 60.9375 C 118.988281 60.246094 119.054688 60.589844 118.570312 60.382812 C 118.089844 60.175781 117.949219 60.175781 117.746094 59.832031 C 117.535156 59.484375 116.980469 59.347656 116.570312 59.210938 C 116.152344 59.070312 115.667969 59.070312 114.632812 58.933594 C 113.59375 58.792969 114.078125 59.140625 113.769531 59.554688 C 113.597656 59.785156 113.394531 60.140625 113.226562 60.6875 C 113.265625 59.589844 113.300781 58.511719 113.34375 57.453125 C 113.480469 57.441406 113.625 57.410156 113.765625 57.34375 C 114.214844 57.132812 114.769531 56.511719 114.769531 56.511719 C 114.769531 56.511719 115.460938 56.859375 116.21875 57.550781 C 116.976562 58.242188 117.464844 58.65625 117.949219 59.277344 C 118.429688 59.902344 118.847656 60.179688 120.226562 59.554688 C 121.613281 58.933594 120.648438 59.488281 121.613281 59.277344 C 122.582031 59.070312 121.886719 58.65625 121.613281 58.3125 C 121.335938 57.964844 120.851562 57.894531 120.164062 57.617188 C 119.46875 57.34375 119.539062 57.132812 120.164062 57.203125 C 120.78125 57.273438 121.542969 57.273438 122.441406 56.996094 C 123.34375 56.71875 122.789062 56.238281 122.789062 56.238281 C 122.789062 56.238281 121.683594 55.820312 120.578125 54.921875 C 119.46875 54.023438 119.882812 54.160156 119.75 53.75 C 119.609375 53.332031 120.648438 53.542969 120.925781 53.542969 C 121.199219 53.542969 121.542969 54.027344 122.238281 54.648438 C 122.929688 55.269531 122.648438 54.511719 122.648438 54.300781 C 122.648438 54.09375 122.375 52.917969 122.097656 52.15625 C 121.824219 51.398438 120.855469 51.808594 120.507812 51.605469 C 120.164062 51.398438 118.777344 50.152344 118.640625 49.941406 C 118.503906 49.738281 118.429688 47.175781 117.949219 46.832031 C 117.46875 46.484375 116.839844 46.347656 116.429688 46.003906 C 116.011719 45.65625 115.460938 45.308594 115.046875 44.964844 C 114.671875 44.652344 114.242188 44.1875 113.882812 43.894531 C 113.921875 42.980469 113.957031 42.09375 114 41.238281 C 116.421875 41.234375 118.773438 41.109375 121.050781 40.894531 C 121.5625 41.394531 122.078125 41.929688 122.441406 42.246094 C 123.039062 42.753906 123.738281 42.84375 123.828125 44.179688 C 123.917969 45.519531 124.332031 45.382812 124.976562 45.382812 C 125.621094 45.382812 126.128906 45.65625 126.269531 45.75 C 126.402344 45.84375 125.949219 46.257812 125.808594 46.578125 C 125.671875 46.902344 125.164062 47.273438 125.621094 48.007812 C 126.085938 48.746094 125.257812 49.207031 126.292969 49.066406 C 127.039062 48.96875 127.480469 48.421875 127.757812 48.136719 C 127.871094 48.390625 127.992188 48.65625 128.109375 48.914062 C 128.085938 49.171875 128.050781 49.445312 128.019531 49.714844 C 127.925781 50.496094 127.171875 51.789062 128.144531 52.621094 C 129.125 53.449219 129.308594 53.816406 130.09375 54.1875 C 130.238281 54.253906 130.347656 54.324219 130.460938 54.394531 C 131.398438 56.707031 132.3125 59.164062 133.195312 61.757812 C 130.316406 62.1875 127.328125 62.519531 124.25 62.75 Z M 117.144531 40.050781 C 117.84375 39.660156 118.582031 39.132812 119.125 39.25 C 119.675781 39.367188 119.523438 39.503906 119.925781 39.878906 C 119.007812 39.953125 118.082031 40.015625 117.144531 40.050781 Z M 132.585938 56.773438 C 133.101562 57.222656 133.171875 57.414062 133.925781 57.6875 C 134.800781 58.011719 134.476562 58.289062 134.980469 58.703125 C 135.488281 59.121094 135.859375 59.070312 136.640625 59.070312 C 137.425781 59.070312 137.75 59.8125 138.167969 59.898438 C 138.578125 59.992188 138.71875 60.132812 139.039062 59.898438 C 139.363281 59.667969 139.363281 60.222656 139.363281 59.347656 C 139.363281 58.46875 139.550781 58.980469 139.363281 57.964844 C 139.179688 56.949219 138.488281 54.367188 137.84375 53.21875 C 137.195312 52.066406 137.519531 52.113281 138.074219 51.605469 C 138.625 51.097656 139.222656 51.238281 139.222656 50.359375 C 139.222656 49.484375 138.714844 49.300781 139.222656 48.144531 C 139.425781 47.683594 139.640625 47.515625 139.8125 47.367188 C 142.777344 50.617188 145.78125 54.214844 148.691406 58.230469 C 144.375 59.617188 139.539062 60.753906 134.3125 61.578125 C 133.75 59.917969 133.171875 58.316406 132.585938 56.773438 Z M 112.941406 40.109375 C 111.390625 40.09375 109.859375 40.03125 108.367188 39.921875 C 108.109375 39.527344 109.535156 39.695312 109.855469 39.5 C 110.203125 39.292969 111.378906 39.707031 111.378906 39.707031 C 111.378906 39.707031 112.003906 39.84375 112.535156 39.773438 C 112.777344 39.742188 112.847656 39.769531 112.867188 39.808594 C 112.894531 39.742188 112.929688 39.632812 112.96875 39.511719 C 112.960938 39.714844 112.953125 39.90625 112.941406 40.109375 Z M 107.503906 36.246094 C 107.039062 35.988281 106.777344 35.777344 106.457031 35.773438 C 106.054688 35.765625 106.539062 35.90625 106.054688 35.765625 C 105.574219 35.628906 105.019531 35.773438 105.019531 35.773438 C 104.742188 36.113281 104.878906 35.699219 104.742188 36.113281 C 104.601562 36.53125 104.601562 37.273438 104.878906 37.25 C 105.15625 37.21875 104.742188 37.011719 105.15625 37.21875 C 105.574219 37.429688 105.222656 37.429688 105.574219 37.429688 C 105.917969 37.429688 105.875 37.207031 106.136719 37.25 C 106.398438 37.289062 105.847656 36.945312 106.398438 37.289062 C 106.640625 37.4375 106.78125 37.507812 106.894531 37.558594 C 106.59375 38.214844 106.273438 38.929688 105.957031 39.628906 C 105.945312 39.625 105.929688 39.609375 105.929688 39.609375 C 105.929688 39.609375 105.898438 39.644531 105.867188 39.691406 C 105.722656 39.671875 105.578125 39.660156 105.4375 39.644531 C 105.4375 39.632812 105.433594 39.625 105.4375 39.609375 C 105.503906 38.808594 105.503906 38.808594 105.503906 38.808594 L 105.226562 38.457031 C 105.226562 38.457031 105.03125 38.382812 104.644531 38.457031 C 104.261719 38.535156 103.710938 39.019531 103.742188 39.222656 C 103.769531 39.398438 103.984375 39.21875 103.851562 39.4375 C 103.398438 39.375 102.9375 39.3125 102.488281 39.242188 C 102.503906 39.171875 102.519531 39.113281 102.53125 39.007812 C 102.601562 38.394531 102.53125 37.714844 102.53125 37.714844 C 102.53125 37.714844 102.628906 37.332031 102.890625 36.816406 C 106.515625 32.917969 109.511719 29.929688 111.421875 28.082031 C 110.480469 29.960938 109.117188 32.761719 107.503906 36.246094 Z M 117.8125 89.773438 C 118.230469 89.21875 118.78125 90.050781 120.230469 89.015625 C 121.683594 87.976562 120.785156 88.597656 120.925781 88.253906 C 121.0625 87.90625 120.925781 87.839844 120.925781 87.496094 C 120.925781 87.148438 121.199219 86.59375 121.199219 86.386719 C 121.199219 86.179688 121.613281 85.902344 122.027344 85.558594 C 122.441406 85.214844 122.582031 85.28125 123.207031 85.003906 C 123.828125 84.730469 124.101562 84.449219 124.308594 84.316406 C 124.519531 84.179688 124.726562 83.691406 126.039062 82.863281 C 127.351562 82.03125 126.105469 83.34375 125.96875 83.691406 C 125.832031 84.039062 124.65625 85.003906 124.863281 85.976562 C 125.070312 86.941406 125.207031 86.25 125.96875 86.113281 C 126.726562 85.976562 127.90625 84.796875 128.113281 84.449219 C 128.320312 84.101562 130.050781 82.792969 129.980469 82.519531 C 129.910156 82.238281 129.910156 81.894531 129.910156 81.894531 C 129.910156 81.894531 129.292969 81.6875 128.460938 81.273438 C 127.628906 80.855469 128.460938 81.273438 127.21875 80.921875 C 125.96875 80.578125 127.21875 80.921875 126.664062 80.304688 C 126.109375 79.683594 126.664062 80.304688 125.902344 80.027344 C 125.144531 79.75 125.902344 80.027344 125.902344 79.542969 C 125.902344 79.058594 126.597656 79.195312 127.148438 78.269531 C 127.703125 77.339844 127.492188 77.605469 127.148438 77.191406 C 126.800781 76.777344 126.730469 77.121094 125.96875 77.121094 C 125.210938 77.121094 125.144531 77.191406 123.96875 77.535156 C 122.789062 77.886719 123.96875 77.535156 123.484375 78.269531 C 123 79.003906 123.136719 78.78125 122.789062 79.0625 C 122.445312 79.335938 122.101562 79.546875 120.785156 79.683594 C 119.472656 79.820312 120.785156 79.683594 120.992188 79.265625 C 121.199219 78.851562 120.992188 79.265625 121.683594 78.269531 C 122.375 77.273438 122.308594 77.675781 122.652344 77.191406 C 123 76.707031 123.691406 76.570312 124.175781 76.222656 C 124.660156 75.875 125.003906 76.015625 125.695312 75.875 C 126.390625 75.742188 127.84375 75.875 129.226562 75.808594 C 130.605469 75.742188 130.398438 75.601562 130.746094 75.1875 C 131.09375 74.769531 131.503906 73.941406 131.648438 73.457031 C 131.789062 72.972656 132.132812 73.042969 132.269531 72.835938 C 132.40625 72.628906 133.167969 71.9375 133.101562 71.519531 C 133.027344 71.105469 132.960938 70.695312 132.613281 70.484375 C 132.269531 70.277344 131.925781 70.277344 131.230469 70 C 130.542969 69.726562 130.679688 69.859375 130.679688 69.03125 C 130.679688 68.203125 130.679688 69.03125 130.472656 68.960938 C 130.265625 68.890625 129.226562 68.410156 128.394531 68.0625 C 127.566406 67.714844 127.984375 67.992188 127.085938 67.789062 C 126.1875 67.582031 126.253906 66.128906 125.90625 65.78125 C 125.609375 65.484375 125.261719 64.550781 124.867188 63.804688 C 127.847656 63.5625 130.765625 63.230469 133.566406 62.804688 C 134.078125 64.347656 134.585938 65.929688 135.070312 67.570312 C 135.925781 70.4375 136.742188 73.539062 137.511719 76.84375 C 137.253906 76.578125 137.214844 76.59375 136.96875 76.328125 C 136.664062 75.984375 137.523438 76.015625 136.523438 75.808594 C 135.519531 75.605469 135.175781 75.535156 134.902344 75.605469 C 134.621094 75.671875 134.449219 75.640625 134.449219 75.640625 C 134.449219 75.640625 134.347656 75.605469 134.207031 75.464844 C 134.066406 75.328125 133.894531 74.980469 133.894531 74.707031 C 133.894531 74.429688 133.894531 74.085938 133.894531 73.875 C 133.894531 73.671875 134.035156 73.425781 133.859375 73.460938 C 133.6875 73.5 133.515625 73.460938 133.515625 73.460938 C 132.960938 74.257812 132.339844 74.601562 132.371094 74.84375 C 132.40625 75.085938 132.300781 75.464844 132.371094 75.640625 C 132.445312 75.8125 132.394531 76.019531 132.34375 76.296875 C 132.304688 76.574219 132.164062 76.539062 132.066406 77.058594 C 131.957031 77.574219 131.75 77.960938 131.75 78.09375 C 131.75 78.234375 131.609375 78.304688 131.75 78.679688 C 131.890625 79.0625 130.816406 78.890625 131.890625 79.0625 C 132.960938 79.234375 132.617188 78.992188 133.722656 79.0625 C 134.828125 79.128906 134.519531 78.957031 135.484375 78.820312 C 136.457031 78.679688 136.730469 78.4375 136.9375 78.472656 C 137.144531 78.507812 136.695312 78.839844 136.523438 79.125 C 136.351562 79.410156 136.96875 79.40625 137.421875 79.40625 C 137.746094 79.40625 137.910156 79.546875 138.105469 79.519531 C 138.6875 82.226562 139.222656 85.070312 139.703125 88.046875 C 132.773438 89.0625 125.402344 89.683594 117.773438 89.84375 C 117.785156 89.8125 117.792969 89.800781 117.8125 89.773438 Z M 139.035156 78.597656 C 139.058594 78.515625 139.039062 78.425781 138.972656 78.3125 C 138.097656 74.328125 137.132812 70.640625 136.132812 67.253906 C 135.660156 65.660156 135.164062 64.128906 134.667969 62.621094 C 139.992188 61.761719 144.917969 60.578125 149.320312 59.136719 C 150.15625 60.304688 150.988281 61.480469 151.800781 62.71875 C 155.550781 68.402344 159.25 75.085938 162.410156 82.773438 C 156.011719 84.925781 148.703125 86.660156 140.792969 87.878906 C 140.261719 84.621094 139.675781 81.527344 139.035156 78.597656 Z M 149.796875 57.882812 C 146.652344 53.519531 143.402344 49.601562 140.195312 46.128906 C 140.191406 46.042969 140.195312 45.980469 140.191406 45.886719 C 140.097656 44.085938 140.515625 44.734375 140.789062 44.226562 C 141.070312 43.71875 140.335938 42.980469 139.59375 42.523438 C 138.855469 42.058594 137.238281 40.953125 136.734375 40.261719 C 136.445312 39.871094 135.628906 38.878906 134.851562 38.027344 C 136.382812 37.480469 137.777344 36.867188 139.027344 36.203125 C 144.566406 39.46875 150.574219 43.65625 156.46875 49.015625 C 157.890625 50.308594 159.238281 51.628906 160.554688 52.964844 C 157.597656 54.8125 153.980469 56.472656 149.796875 57.882812 Z M 133.988281 37.148438 C 133.738281 36.917969 133.515625 36.734375 133.371094 36.664062 C 132.679688 36.34375 133.144531 37.171875 131.988281 35.835938 C 130.839844 34.503906 130.285156 34.636719 129.773438 34.453125 C 129.269531 34.269531 128.855469 34.039062 128.25 33.535156 C 127.652344 33.023438 128.070312 33.304688 127.421875 32.933594 C 126.777344 32.566406 126.644531 32.339844 125.488281 31.550781 C 124.804688 31.089844 124.214844 31.097656 123.828125 31.175781 C 121.191406 29.167969 118.964844 27.636719 117.34375 26.585938 C 117.644531 26.660156 118.011719 26.746094 118.351562 26.828125 C 122.109375 28.007812 129.355469 30.644531 137.902344 35.550781 C 136.722656 36.125 135.417969 36.664062 133.988281 37.148438 Z M 122.363281 31.457031 C 122.265625 31.441406 122.03125 31.324219 121.523438 30.996094 C 120.230469 30.167969 119.453125 29.84375 119.125 29.984375 C 118.996094 30.039062 118.863281 30.109375 118.742188 30.175781 C 118.019531 29.164062 117.363281 28.273438 116.804688 27.554688 C 118.226562 28.480469 120.117188 29.773438 122.363281 31.457031 Z M 113.335938 31.703125 C 112.78125 31.800781 111.925781 32.453125 111.515625 32.65625 C 111.1875 32.820312 110.707031 33.175781 109.835938 33.863281 C 111.734375 29.875 113.097656 27.195312 113.613281 26.191406 C 113.5625 27.222656 113.464844 29.097656 113.335938 31.703125 Z M 99.652344 38.71875 C 99.273438 38.644531 98.914062 38.554688 98.550781 38.46875 C 98.589844 38.4375 98.605469 38.433594 98.660156 38.394531 C 99.421875 37.773438 99.140625 38.214844 99.765625 37.714844 C 100.386719 37.21875 99.421875 37.632812 100.386719 37.21875 C 101.355469 36.804688 101.355469 36.804688 101.355469 36.804688 L 101.355469 36.042969 L 100.257812 36.113281 C 100.179688 36.25 100.664062 35.285156 99.488281 36.113281 C 98.3125 36.941406 97.828125 36.804688 97.6875 37.011719 C 97.550781 37.21875 97.066406 37.714844 97.066406 37.714844 C 97.066406 37.714844 96.308594 37.246094 96.378906 37.714844 C 96.390625 37.8125 96.394531 37.867188 96.398438 37.929688 C 95.425781 37.664062 94.507812 37.375 93.621094 37.066406 C 100.890625 32.421875 106.96875 29.210938 110.441406 27.488281 C 108.085938 29.773438 104.253906 33.625 99.652344 38.71875 Z M 98.566406 39.679688 C 98.464844 39.78125 98.410156 39.882812 98.242188 40.121094 C 97.894531 40.609375 96.996094 40.46875 97.894531 40.609375 C 97.917969 40.613281 97.933594 40.617188 97.953125 40.621094 C 97.445312 41.191406 96.945312 41.75 96.421875 42.351562 C 96.351562 42.289062 96.308594 42.1875 96.308594 41.992188 C 96.308594 41.09375 95.890625 41.855469 96.308594 41.09375 C 96.722656 40.332031 97.066406 39.710938 96.789062 39.640625 C 96.515625 39.570312 95.683594 39.640625 95.683594 39.640625 C 95.0625 39.777344 93.816406 39.777344 93.058594 40.402344 C 92.296875 41.023438 92.15625 40.953125 91.671875 41.574219 C 91.191406 42.199219 90.914062 42.199219 90.773438 42.40625 C 90.636719 42.613281 89.808594 43.007812 90.21875 43.15625 C 90.636719 43.304688 90.773438 42.9375 91.257812 43.15625 C 91.746094 43.375 92.160156 43.855469 92.160156 43.855469 C 92.160156 43.855469 92.160156 44.132812 92.230469 44.410156 C 92.296875 44.683594 91.398438 45.378906 91.46875 45.585938 C 91.535156 45.792969 91.261719 46.34375 91.46875 46.761719 C 91.664062 47.160156 91.375 47.066406 91.96875 47.609375 C 91.574219 48.089844 91.179688 48.566406 90.777344 49.058594 C 90.613281 49.0625 90.550781 49.054688 90.429688 48.976562 C 90.222656 48.835938 90.222656 48.351562 90.222656 48.351562 C 90.222656 48.351562 90.847656 47.9375 90.847656 47.730469 C 90.847656 47.523438 90.777344 47.246094 90.777344 47.246094 L 90.292969 46.625 C 90.292969 46.625 89.53125 45.863281 89.425781 45.65625 C 89.3125 45.445312 88.769531 45.304688 88.769531 45.304688 C 88.769531 45.304688 88.632812 44.480469 88.632812 43.785156 C 88.632812 43.09375 87.941406 43.230469 87.941406 43.230469 C 87.941406 43.230469 87.390625 43.230469 86.902344 43.230469 C 86.417969 43.230469 86.140625 43.4375 85.796875 43.507812 C 85.472656 43.574219 85.066406 43.515625 84.167969 43.511719 C 86.996094 41.453125 89.757812 39.566406 92.371094 37.863281 C 94.246094 38.566406 96.308594 39.183594 98.566406 39.679688 Z M 83.289062 44.160156 C 83.304688 44.144531 83.320312 44.132812 83.335938 44.121094 C 83.320312 44.132812 83.3125 44.144531 83.289062 44.160156 Z M 112.535156 141.296875 C 112.335938 141.371094 112.257812 141.5 112.148438 141.621094 C 112.117188 139.769531 112.09375 137.90625 112.070312 136.039062 C 112.109375 136.160156 112.136719 136.246094 112.136719 136.246094 L 112.832031 136.589844 C 112.832031 136.589844 112.902344 141.15625 112.535156 141.296875 Z M 113.859375 116.6875 C 113.730469 116.6875 113.609375 116.6875 113.480469 116.683594 C 113.449219 116.660156 113.421875 116.632812 113.386719 116.609375 C 112.972656 116.261719 113.253906 115.917969 112.28125 115.984375 C 112.164062 115.996094 112.109375 116.003906 112.019531 116.011719 C 112.054688 110.488281 112.113281 104.976562 112.203125 99.558594 C 112.457031 99.367188 112.703125 99.183594 113.039062 98.972656 C 113.589844 98.625 113.039062 98.972656 113.765625 98.144531 C 114.492188 97.3125 113.730469 97.453125 113.765625 96.898438 C 113.796875 96.347656 114.144531 93.925781 114.558594 94.132812 C 114.976562 94.339844 114.558594 94.132812 115.460938 94.203125 C 116.363281 94.269531 115.460938 94.203125 115.8125 93.441406 C 116.152344 92.679688 116.570312 92.609375 116.707031 92.265625 C 116.84375 91.921875 116.980469 91.578125 117.1875 90.960938 C 125.128906 90.828125 132.746094 90.210938 139.878906 89.1875 C 141.074219 96.855469 141.894531 105.40625 142.113281 114.847656 C 133.199219 116.046875 123.6875 116.6875 113.859375 116.6875 Z M 140.972656 89.027344 C 149.007812 87.8125 156.386719 86.066406 162.855469 83.894531 C 165.800781 91.265625 168.242188 99.542969 169.789062 108.734375 C 161.925781 111.300781 152.945312 113.328125 143.214844 114.695312 C 142.988281 105.257812 142.167969 96.703125 140.972656 89.027344 Z M 139.070312 34.941406 C 134.9375 32.539062 131.113281 30.667969 127.773438 29.214844 C 131.949219 30.347656 136.691406 31.726562 141.492188 33.316406 C 140.785156 33.882812 139.988281 34.429688 139.070312 34.941406 Z M 111.046875 25.960938 C 107.722656 27.566406 100.757812 31.144531 92.300781 36.601562 C 90.183594 35.777344 88.375 34.839844 86.9375 33.820312 C 97.261719 29.371094 105.804688 26.96875 109.695312 25.992188 C 110.144531 25.984375 110.59375 25.96875 111.046875 25.960938 Z M 91.109375 37.382812 C 88.378906 39.171875 85.519531 41.136719 82.574219 43.304688 C 82.570312 43.1875 82.585938 43.078125 82.542969 42.957031 C 82.40625 42.539062 82.269531 42.058594 82.058594 41.714844 C 81.851562 41.367188 81.785156 40.882812 81.644531 40.398438 C 81.503906 39.917969 81.574219 39.917969 81.296875 39.429688 C 81.023438 38.945312 80.535156 38.460938 80.394531 38.046875 C 80.257812 37.632812 80.121094 37.632812 79.707031 37.703125 C 79.292969 37.769531 79.292969 37.632812 78.945312 37.769531 C 78.769531 37.839844 78.675781 37.785156 78.5 37.742188 C 80.972656 36.496094 83.390625 35.367188 85.730469 34.339844 C 87.15625 35.46875 88.96875 36.488281 91.109375 37.382812 Z M 72.308594 41.09375 C 72.105469 41.367188 71.960938 41.367188 71.6875 41.507812 C 71.617188 41.542969 71.566406 41.53125 71.527344 41.488281 C 71.800781 41.335938 72.066406 41.191406 72.339844 41.039062 C 72.328125 41.058594 72.324219 41.070312 72.308594 41.09375 Z M 65.742188 50.082031 C 65.945312 50.082031 65.464844 50.425781 65.117188 50.585938 C 64.886719 50.695312 64.808594 51.0625 64.765625 51.375 C 64.511719 51.183594 64.265625 50.996094 64.03125 50.804688 C 64.503906 50.582031 65.578125 50.082031 65.742188 50.082031 Z M 66.085938 51.742188 C 66.292969 51.742188 66.914062 51.394531 66.914062 51.394531 C 66.914062 51.394531 67.742188 51.046875 67.816406 50.636719 C 67.886719 50.222656 68.09375 52.570312 68.09375 52.570312 C 68.09375 52.570312 68.210938 53.179688 68.273438 53.695312 C 67.230469 53.097656 66.257812 52.476562 65.371094 51.835938 C 65.675781 51.796875 65.988281 51.742188 66.085938 51.742188 Z M 69.066406 55.84375 C 69.203125 56.257812 69.402344 56.863281 69.339844 57.136719 C 69.265625 57.414062 69.199219 57.757812 68.988281 58.035156 C 68.785156 58.3125 68.785156 59.972656 68.503906 60.25 C 68.230469 60.523438 68.503906 60.941406 68.296875 61.773438 C 68.09375 62.601562 68.503906 62.8125 68.503906 62.8125 L 68.296875 63.847656 C 68.296875 63.847656 67.953125 65.023438 67.742188 65.4375 C 67.539062 65.855469 67.398438 66.335938 67.398438 66.335938 C 67.398438 66.335938 67.605469 67.722656 67.125 68.136719 C 66.640625 68.550781 67.125 68.136719 66.914062 68.34375 C 66.707031 68.550781 66.640625 69.171875 66.5 69.65625 C 66.363281 70.140625 67.125 71.179688 67.191406 71.523438 C 67.261719 71.871094 67.261719 72.214844 67.191406 72.492188 C 67.125 72.769531 67.46875 73.53125 67.261719 74.015625 C 67.054688 74.5 66.429688 76.917969 66.085938 77.609375 C 65.738281 78.304688 64.980469 79.339844 64.492188 80.03125 C 64.039062 80.683594 63.933594 81.054688 63.285156 82.191406 C 58.519531 80.480469 54.328125 78.527344 50.820312 76.371094 C 55.550781 69.6875 60.792969 63.804688 65.957031 58.773438 C 66.992188 57.769531 68.027344 56.796875 69.066406 55.84375 Z M 63.746094 93.359375 C 64.011719 93.542969 64.082031 93.667969 64.566406 94.203125 C 65.1875 94.894531 65.1875 98.695312 65.324219 99.386719 C 65.464844 100.078125 66.363281 100.492188 66.363281 100.492188 C 66.363281 100.492188 66.429688 100.976562 66.363281 101.324219 C 66.292969 101.667969 66.363281 102.289062 66.09375 102.566406 C 65.824219 102.84375 66.152344 102.984375 66.152344 102.984375 C 66.152344 102.984375 66.015625 103.328125 66.152344 103.605469 C 66.292969 103.882812 66.152344 104.226562 66.152344 104.226562 C 66.152344 104.226562 66.84375 104.714844 67.261719 104.921875 C 67.679688 105.125 68.019531 105.335938 67.953125 105.539062 C 67.882812 105.746094 68.089844 107.339844 68.15625 107.890625 C 68.226562 108.445312 68.4375 108.445312 68.4375 108.722656 C 68.4375 108.996094 69.195312 110.101562 69.195312 110.3125 C 69.195312 110.519531 69.816406 110.863281 69.816406 110.863281 L 70.160156 110.863281 C 70.160156 110.863281 70.300781 109.964844 70.300781 109.757812 C 70.300781 109.550781 70.300781 109.140625 70.300781 109.140625 C 70.300781 109.140625 70.160156 108.789062 69.816406 108.515625 C 69.46875 108.238281 69.335938 107.40625 69.335938 107.40625 C 69.335938 107.40625 69.335938 106.441406 69.195312 106.234375 C 69.054688 106.027344 68.710938 104.503906 68.710938 104.503906 L 68.5 103.328125 C 68.5 103.328125 68.15625 102.152344 68.089844 101.945312 C 68.019531 101.738281 68.019531 101.460938 67.882812 101.1875 C 67.742188 100.910156 67.8125 100.148438 67.8125 100.148438 L 67.257812 98.277344 C 67.257812 98.277344 68.226562 98.007812 68.789062 98.277344 C 69.347656 98.558594 69.398438 99.941406 68.847656 100.769531 C 68.292969 101.601562 71.679688 105.195312 71.679688 105.195312 C 71.679688 105.195312 71.753906 105.960938 71.683594 106.441406 C 71.613281 106.925781 72.375 107.0625 72.375 107.546875 C 72.375 108.03125 74.722656 111.839844 75.074219 112.871094 C 75.097656 112.949219 75.09375 113.023438 75.109375 113.09375 C 68.914062 111.882812 63.109375 110.390625 57.816406 108.652344 C 59.464844 103.4375 61.476562 98.328125 63.746094 93.359375 Z M 75.1875 114.210938 C 75.148438 114.867188 75.035156 115.582031 75.074219 116.464844 C 75.140625 117.992188 76.664062 118.890625 76.664062 118.890625 L 78.324219 120.066406 L 79.710938 120.546875 C 79.710938 120.546875 80.082031 120.753906 80.660156 121.054688 C 79.542969 128.902344 78.90625 136.914062 78.972656 144.8125 C 69.472656 143.226562 60.742188 141.007812 53.15625 138.285156 C 53.132812 137.039062 53.132812 135.777344 53.175781 134.511719 C 53.433594 126.121094 55.023438 117.789062 57.507812 109.671875 C 62.921875 111.457031 68.859375 112.980469 75.1875 114.210938 Z M 81.699219 121.59375 C 83.421875 122.460938 85.820312 123.589844 87.109375 123.796875 C 89.25 124.144531 90.148438 123.316406 91.117188 123.796875 C 92.089844 124.28125 93.675781 126.011719 94.578125 126.980469 C 95.476562 127.945312 95.40625 127.324219 95.960938 127.667969 C 96.511719 128.011719 96.71875 127.738281 97.964844 128.089844 C 99.207031 128.429688 100.453125 130.847656 100.453125 131.402344 C 100.453125 131.953125 100.867188 132.445312 101.351562 133.269531 C 101.835938 134.101562 102.179688 133.269531 102.941406 133.269531 C 103.707031 133.269531 104.1875 135.140625 104.535156 135.066406 C 104.882812 135.003906 105.988281 135.003906 105.988281 135.003906 C 105.988281 135.003906 107.160156 135.691406 107.714844 136.246094 L 108.617188 135.417969 L 109.582031 134.65625 L 110.414062 134.308594 C 110.414062 134.308594 110.671875 134.414062 110.953125 134.539062 C 110.980469 137.113281 111.015625 139.671875 111.058594 142.210938 C 110.605469 142.542969 110.101562 143.007812 109.792969 143.230469 C 109.304688 143.578125 108.960938 145.375 108.410156 146.550781 C 108.257812 146.867188 108.160156 147.207031 108.085938 147.542969 C 98.316406 147.289062 88.878906 146.421875 80.078125 145 C 80 137.222656 80.613281 129.332031 81.699219 121.59375 Z M 107.941406 148.648438 C 107.917969 149.046875 107.917969 149.375 107.917969 149.449219 C 107.917969 149.660156 108.476562 150.214844 108.476562 150.773438 C 108.476562 151.316406 108.476562 150.773438 108.199219 150.839844 C 107.921875 150.902344 107.507812 151.945312 107.234375 152.289062 C 106.957031 152.632812 107.234375 153.878906 107.234375 154.292969 C 107.234375 154.707031 107.785156 155.261719 108.40625 155.46875 C 108.859375 155.621094 110.46875 156.476562 111.457031 157.144531 C 111.65625 162.488281 111.90625 167.636719 112.230469 172.507812 C 102.191406 172.429688 92.441406 171.683594 83.316406 170.335938 C 81.222656 162.667969 80.242188 154.507812 80.082031 146.191406 C 88.808594 147.558594 98.179688 148.402344 107.941406 148.648438 Z M 112.601562 158.34375 C 113.003906 158.976562 113.472656 159.800781 113.726562 160.105469 C 114.066406 160.519531 114.007812 161.347656 113.765625 161.765625 C 113.519531 162.175781 114.425781 162.316406 114.628906 162.871094 C 114.835938 163.421875 115.179688 163.351562 115.320312 163.699219 C 115.460938 164.046875 116.011719 164.53125 116.359375 165.082031 C 116.707031 165.632812 118.429688 166.324219 119.332031 166.398438 C 120.230469 166.464844 122.859375 167.085938 123.136719 167.921875 C 123.234375 168.226562 123.128906 170.070312 122.917969 172.328125 C 119.925781 172.453125 116.910156 172.527344 113.859375 172.527344 C 113.6875 172.527344 113.511719 172.523438 113.335938 172.523438 C 113.039062 168.011719 112.796875 163.261719 112.601562 158.34375 Z M 113.859375 173.636719 C 116.875 173.636719 119.851562 173.554688 122.808594 173.441406 C 122.417969 177.089844 121.808594 181.289062 121.339844 181.882812 C 120.554688 182.867188 120.324219 182.625 118.832031 189.054688 C 117.511719 189.089844 116.183594 189.136719 114.871094 189.140625 C 114.285156 184.445312 113.800781 179.230469 113.414062 173.625 C 113.5625 173.628906 113.710938 173.636719 113.859375 173.636719 Z M 131.4375 187.765625 C 131.570312 187.554688 132.679688 187.488281 132.957031 187.421875 C 132.957031 187.421875 132.96875 187.417969 132.976562 187.414062 C 132.925781 187.59375 132.875 187.777344 132.828125 187.957031 C 132.320312 188.023438 131.824219 188.0625 131.316406 188.121094 C 131.363281 187.945312 131.40625 187.808594 131.4375 187.765625 Z M 155.242188 143.699219 C 154.40625 143.445312 154.378906 143.503906 153.910156 143.4375 C 153.425781 143.371094 152.664062 143.300781 151.492188 142.816406 C 150.3125 142.328125 149.207031 142.953125 149.207031 142.953125 L 150.449219 141.84375 C 150.449219 141.84375 150.519531 140.945312 149.832031 139.703125 C 148.929688 135.480469 143.53125 135.828125 143.121094 135.828125 C 142.996094 135.828125 142.863281 135.832031 142.722656 135.824219 C 143.207031 128.769531 143.367188 122.082031 143.242188 115.800781 C 153.007812 114.425781 162.042969 112.390625 169.96875 109.800781 C 171.402344 118.839844 171.945312 128.761719 171.25 139.542969 C 166.3125 141.148438 160.949219 142.542969 155.242188 143.699219 Z M 171.039062 109.453125 C 175.09375 108.089844 178.839844 106.578125 182.234375 104.9375 C 182.4375 106.476562 182.820312 107.898438 183.578125 108.792969 C 185.445312 111.003906 185.445312 110.867188 185.371094 112.597656 C 185.304688 114.324219 185.304688 115.359375 185.722656 115.636719 C 186.136719 115.914062 187.035156 117.574219 187.445312 118.125 C 187.863281 118.675781 187.796875 119.300781 188.417969 120.128906 C 189.015625 120.925781 188.558594 121.28125 190.839844 121.921875 C 191.113281 124.742188 191.300781 127.53125 191.417969 130.28125 C 186.296875 133.675781 179.851562 136.664062 172.386719 139.171875 C 173.050781 128.398438 172.484375 118.492188 171.039062 109.453125 Z M 190.699219 75.945312 C 190.699219 75.945312 189.105469 74.972656 188.828125 75.324219 C 188.554688 75.667969 187.035156 77.535156 187.035156 77.535156 C 187.035156 77.535156 186.410156 79.609375 186.273438 79.820312 C 186.136719 80.023438 183.230469 82.375 183.089844 82.582031 C 182.96875 82.777344 182.734375 83.371094 182.636719 84.097656 C 182.117188 82.878906 181.578125 81.683594 181.027344 80.515625 C 181.117188 80.515625 181.191406 80.503906 181.296875 80.511719 C 182.195312 80.578125 183.441406 80.453125 183.648438 80.621094 C 183.855469 80.789062 184.480469 80.511719 185.097656 79.75 C 185.722656 78.992188 185.449219 78.507812 185.097656 77.332031 C 184.75 76.15625 184.0625 75.53125 183.925781 74.632812 C 183.820312 73.964844 183.609375 73.675781 183.472656 72.8125 C 184.941406 71.453125 186.171875 70.039062 187.15625 68.582031 C 188.570312 70.96875 189.875 73.433594 191.054688 75.964844 Z M 150.199219 35.265625 C 148.035156 34.421875 145.816406 33.613281 143.582031 32.851562 C 143.847656 32.5625 144.070312 32.269531 144.28125 31.972656 C 146.058594 32.671875 147.8125 33.421875 149.535156 34.238281 C 149.695312 34.570312 149.933594 34.933594 150.199219 35.265625 Z M 142.425781 32.460938 C 134.449219 29.789062 126.515625 27.679688 121.121094 26.351562 C 128.824219 27.113281 136.234375 28.898438 143.21875 31.554688 C 142.984375 31.863281 142.722656 32.167969 142.425781 32.460938 Z M 104.347656 26.320312 C 99.71875 27.691406 93.269531 29.863281 85.957031 33.042969 C 85.113281 32.320312 84.441406 31.5625 83.988281 30.777344 C 90.464844 28.507812 97.28125 26.988281 104.347656 26.320312 Z M 61.589844 47.785156 C 61.542969 47.960938 61.503906 48.128906 61.476562 48.292969 C 61.394531 48.203125 61.3125 48.117188 61.238281 48.023438 C 61.351562 47.941406 61.476562 47.867188 61.589844 47.785156 Z M 61.148438 49.488281 C 61.078125 49.84375 61.21875 50.011719 61.109375 50.566406 C 60.96875 51.257812 61.109375 50.566406 60.691406 50.773438 C 60.589844 50.820312 60.542969 50.847656 60.519531 50.859375 C 60.519531 50.859375 60.503906 50.867188 60.5 50.867188 C 60.492188 50.875 60.476562 50.882812 60.414062 50.910156 C 60.136719 51.046875 60 51.324219 59.726562 51.324219 C 59.449219 51.324219 58.753906 51.742188 58.753906 51.742188 C 58.753906 51.742188 58.132812 52.089844 57.71875 52.089844 C 57.304688 52.089844 57.371094 52.433594 56.890625 52.503906 C 56.40625 52.570312 56.265625 52.570312 55.851562 52.570312 C 55.433594 52.570312 55.851562 53.265625 55.851562 53.265625 C 55.851562 53.265625 57.304688 53.402344 57.855469 53.332031 C 58.410156 53.265625 58.617188 53.195312 59.03125 53.054688 C 59.445312 52.917969 60.273438 52.917969 60.625 52.710938 C 60.96875 52.503906 61.796875 52.019531 61.796875 52.019531 C 61.796875 52.019531 62.835938 51.8125 63.109375 51.742188 C 63.21875 51.714844 63.296875 51.636719 63.363281 51.550781 C 64.8125 52.738281 66.511719 53.863281 68.429688 54.921875 C 67.351562 55.910156 66.277344 56.917969 65.210938 57.953125 C 59.980469 63.050781 54.671875 69 49.886719 75.769531 C 45.65625 73.039062 42.53125 70 40.730469 66.746094 C 46.628906 59.636719 53.410156 53.640625 60.410156 48.628906 C 60.644531 48.914062 60.890625 49.203125 61.148438 49.488281 Z M 50.230469 77.210938 C 53.785156 79.394531 58 81.378906 62.777344 83.117188 C 62.480469 83.714844 62.550781 83.757812 62.550781 83.757812 C 62.550781 83.757812 62.765625 86.527344 62.628906 87.636719 C 62.492188 88.742188 62.558594 91.296875 62.628906 92.132812 C 62.660156 92.488281 62.722656 92.648438 62.824219 92.761719 C 60.503906 97.8125 58.441406 103.003906 56.765625 108.300781 C 49.558594 105.855469 43.339844 102.957031 38.429688 99.695312 C 41.453125 91.425781 45.570312 83.921875 50.230469 77.210938 Z M 53.199219 139.617188 C 60.789062 142.300781 69.492188 144.46875 78.980469 146.015625 C 79.128906 154.308594 80.085938 162.46875 82.132812 170.152344 C 73.613281 168.835938 65.664062 167.011719 58.582031 164.726562 C 55.289062 156.792969 53.503906 148.402344 53.199219 139.617188 Z M 83.65625 171.5 C 92.71875 172.816406 102.378906 173.542969 112.308594 173.609375 C 112.695312 179.21875 113.171875 184.445312 113.757812 189.15625 C 105.476562 189.125 97.644531 188.414062 90.492188 187.335938 C 87.523438 182.421875 85.28125 177.105469 83.65625 171.5 Z M 118.578125 190.164062 C 118.574219 190.171875 118.574219 190.179688 118.570312 190.1875 C 116.839844 197.792969 118.570312 198.964844 118.570312 198.964844 C 118.570312 198.964844 119.679688 198.828125 119.882812 198.621094 C 120.09375 198.414062 121.410156 198.414062 121.753906 198.203125 C 122.097656 198 122.097656 197.925781 122.308594 197.585938 C 122.507812 197.238281 122.789062 196.964844 122.789062 196.964844 C 122.789062 196.964844 123.621094 196.132812 123.898438 195.714844 C 124.171875 195.304688 124.585938 195.027344 124.726562 194.609375 C 124.863281 194.195312 124.726562 194.125 124.726562 194.125 C 124.726562 194.125 125 193.367188 125.074219 193.089844 C 125.140625 192.8125 125.558594 192.949219 125.902344 192.8125 C 126.246094 192.671875 126.660156 192.464844 126.800781 192.1875 C 126.941406 191.914062 127.148438 191.226562 127.148438 190.8125 C 127.148438 190.394531 127.703125 190.1875 128.113281 189.980469 C 128.53125 189.769531 129.015625 190.324219 129.984375 190.253906 C 130.40625 190.222656 130.707031 189.785156 130.921875 189.277344 C 131.457031 189.21875 131.988281 189.167969 132.519531 189.105469 C 131.792969 191.847656 131.015625 194.632812 130.191406 197.453125 C 125.734375 198.375 121.144531 198.953125 116.464844 199.164062 C 115.921875 196.488281 115.445312 193.5 115.015625 190.242188 C 116.195312 190.242188 117.382812 190.199219 118.578125 190.164062 Z M 133.703125 188.980469 C 143.402344 187.71875 153.324219 185.5 163.367188 182.414062 C 163.371094 182.414062 163.375 182.417969 163.382812 182.417969 C 163.5 182.417969 163.613281 182.378906 163.707031 182.3125 C 163.855469 182.265625 164.003906 182.214844 164.152344 182.171875 C 154.566406 189.300781 143.460938 194.484375 131.421875 197.167969 C 132.222656 194.402344 132.988281 191.667969 133.703125 188.980469 Z M 134.011719 187.8125 C 134.0625 187.601562 134.113281 187.398438 134.164062 187.195312 C 134.460938 187.144531 134.753906 187.097656 134.960938 187.074219 C 135.515625 187.003906 135.71875 186.65625 136.480469 186.382812 C 137.242188 186.109375 137.035156 186.109375 138.007812 185.277344 C 138.976562 184.445312 135.65625 182.925781 136.480469 182.230469 C 137.316406 181.542969 136.621094 182.578125 137.453125 183.132812 C 138.28125 183.683594 138.007812 183.269531 138.699219 183.269531 C 139.390625 183.269531 139.457031 183.199219 140.285156 182.992188 C 141.117188 182.789062 141.117188 182.992188 141.8125 182.574219 C 142.5 182.164062 141.8125 182.574219 142.78125 181.816406 C 143.746094 181.058594 143.195312 181.472656 144.023438 180.640625 C 144.855469 179.8125 144.644531 180.015625 145.476562 178.84375 C 146.304688 177.667969 146.09375 177.875 148.863281 176.21875 C 151.628906 174.558594 149.28125 175.113281 149.140625 174.003906 C 149.003906 172.898438 149.347656 173.246094 149.832031 172.277344 C 150.140625 171.648438 152.988281 170.492188 155.476562 169.5 C 159.550781 168.636719 163.441406 167.644531 167.132812 166.53125 C 165.992188 171.34375 164.605469 176.292969 162.953125 181.386719 C 153.152344 184.386719 143.480469 186.550781 134.011719 187.8125 Z M 159.550781 167.441406 C 159.496094 167.304688 159.511719 167.0625 159.859375 166.539062 C 160.894531 164.945312 161.519531 164.601562 161.722656 164.121094 C 161.929688 163.625 162.691406 162.730469 162.898438 161.972656 C 163.105469 161.207031 163.175781 161.484375 163.105469 161.003906 C 163.035156 160.515625 162.621094 157.472656 163.378906 156.023438 C 164.140625 154.574219 165.179688 154.089844 166.082031 152.703125 C 166.976562 151.316406 166.976562 151.59375 167.671875 150.839844 C 168.359375 150.078125 168.707031 149.175781 168.84375 148.34375 C 168.980469 147.515625 168.84375 146.757812 168.292969 146.203125 C 167.742188 145.644531 167.394531 146.203125 166.636719 145.515625 C 165.875 144.820312 165.523438 144.753906 163.726562 144.402344 C 161.929688 144.058594 162.550781 144.820312 160.617188 144.679688 C 158.683594 144.539062 159.71875 144.957031 158.402344 144.820312 C 157.203125 144.695312 158.183594 144.789062 157.992188 144.230469 C 162.636719 143.214844 167.042969 142.035156 171.164062 140.71875 C 170.601562 148.460938 169.402344 156.644531 167.414062 165.289062 C 164.886719 166.0625 162.265625 166.785156 159.550781 167.441406 Z M 192.554688 130.820312 C 194.628906 129.414062 196.480469 127.933594 198.09375 126.398438 C 196.980469 133.3125 195.058594 139.960938 192.40625 146.234375 C 192.699219 140.863281 192.730469 135.734375 192.554688 130.820312 Z M 192.5 129.53125 C 192.394531 127.074219 192.242188 124.671875 192.027344 122.332031 C 193.40625 122.992188 192.710938 123.695312 194.363281 122.691406 C 196.296875 121.515625 197.402344 120.066406 198.375 118.816406 C 198.621094 118.496094 198.835938 118.1875 199.027344 117.898438 C 198.890625 120.144531 198.664062 122.367188 198.355469 124.570312 C 196.707031 126.300781 194.746094 127.953125 192.5 129.53125 Z M 58.273438 45.078125 C 58.628906 45.988281 59.128906 46.878906 59.746094 47.75 C 52.804688 52.722656 46.070312 58.652344 40.1875 65.667969 C 40.121094 65.523438 40.0625 65.382812 40 65.234375 C 45.003906 57.597656 51.183594 50.789062 58.273438 45.078125 Z M 28.394531 91.835938 C 30.433594 94.765625 33.378906 97.527344 37.101562 100.082031 C 34.160156 108.363281 32.328125 117.398438 32.15625 127.148438 C 29.6875 125.085938 27.695312 122.917969 26.253906 120.65625 C 26.003906 118.003906 25.863281 115.3125 25.863281 112.597656 C 25.863281 105.441406 26.75 98.492188 28.394531 91.835938 Z M 37.71875 156.269531 C 43.066406 159.878906 49.867188 163.03125 57.753906 165.609375 C 60.199219 171.394531 63.421875 176.953125 67.421875 182.253906 C 63.558594 181.125 60.269531 180.011719 57.664062 179.0625 C 57.46875 178.996094 57.285156 179.070312 57.136719 179.191406 C 49.410156 172.753906 42.832031 164.992188 37.71875 156.269531 Z M 99.015625 198.203125 C 96.027344 195.234375 93.4375 192.015625 91.238281 188.566406 C 98.238281 189.582031 105.859375 190.242188 113.902344 190.257812 C 114.324219 193.519531 114.804688 196.507812 115.339844 199.195312 C 114.40625 199.222656 113.472656 199.265625 112.535156 199.265625 C 107.9375 199.265625 103.421875 198.898438 99.015625 198.203125 Z M 166.621094 180.242188 C 165.824219 180.503906 165.03125 180.734375 164.234375 180.988281 C 165.855469 175.902344 167.234375 170.953125 168.355469 166.144531 C 174.882812 164.105469 180.753906 161.6875 185.726562 158.921875 C 180.566406 167.042969 174.105469 174.253906 166.621094 180.242188 Z M 166.621094 180.242188 " fill-opacity="1" fill-rule="nonzero"/></g><path fill="#5b09e1" d="M 118.710938 120.066406 C 118.640625 120.339844 117.605469 120.269531 117.328125 120.757812 C 117.050781 121.238281 116.570312 121.65625 117.328125 121.722656 C 118.089844 121.792969 118.503906 121.65625 119.332031 121.722656 C 120.164062 121.792969 119.332031 121.898438 120.4375 121.746094 C 121.542969 121.585938 121.0625 121.933594 122.167969 121.453125 C 123.273438 120.96875 123.96875 120.898438 124.585938 120.898438 C 125.207031 120.898438 125.207031 120.308594 125.488281 120.492188 C 125.761719 120.6875 125.96875 121.203125 125.96875 120.492188 C 125.96875 119.789062 125.902344 119.527344 124.730469 119.519531 C 123.550781 119.511719 123.207031 119.527344 122.789062 119.519531 C 122.375 119.511719 121.445312 119.519531 121.445312 119.519531 L 120.441406 119.167969 C 119.058594 119.230469 118.710938 119.519531 118.710938 119.519531 C 118.710938 119.519531 119.335938 119.996094 119.574219 120.066406 C 119.820312 120.132812 118.777344 119.785156 118.710938 120.066406 Z M 118.710938 120.066406 " fill-opacity="1" fill-rule="nonzero"/><path fill="#5b09e1" d="M 128.445312 121.542969 C 129.082031 121.515625 128.738281 121.65625 129.082031 121.515625 C 129.429688 121.375 129.011719 121.722656 129.429688 121.375 C 129.84375 121.03125 129.84375 121.03125 129.84375 121.03125 C 129.84375 121.03125 129.984375 120.757812 130.191406 120.757812 C 130.398438 120.757812 130.398438 120.230469 130.191406 120.492188 C 129.984375 120.757812 128.949219 120.492188 128.949219 120.492188 C 128.464844 120.546875 128.046875 120.617188 127.984375 120.757812 C 127.910156 120.894531 127.984375 120.894531 127.984375 121.171875 C 127.980469 121.449219 127.808594 121.566406 128.445312 121.542969 Z M 128.445312 121.542969 " fill-opacity="1" fill-rule="nonzero"/><path fill="#5b09e1" d="M 150.609375 47.546875 C 149.832031 47.453125 149.785156 47.316406 149.410156 46.992188 C 149.039062 46.667969 148.613281 46.578125 148.460938 46.578125 C 148.304688 46.578125 148.074219 46.578125 148.074219 46.578125 C 147.75 47.035156 147.613281 47.363281 147.566406 47.5 C 147.519531 47.636719 146.96875 48.003906 146.96875 48.003906 C 146.96875 48.003906 146.921875 47.960938 146.597656 48.003906 C 146.28125 48.050781 145.589844 47.175781 145.402344 48.003906 C 145.214844 48.835938 144.941406 48.742188 145.402344 49.296875 C 145.859375 49.851562 146.972656 50.453125 147.476562 50.773438 C 147.984375 51.097656 147.84375 51.421875 149 51.554688 C 150.152344 51.695312 149.691406 52.25 150.609375 51.28125 C 151.535156 50.3125 151.394531 51.050781 151.582031 49.851562 C 151.765625 48.652344 151.898438 48.796875 151.582031 48.28125 C 151.257812 47.777344 151.394531 47.640625 150.609375 47.546875 Z M 150.609375 47.546875 " fill-opacity="1" fill-rule="nonzero"/><path fill="#5b09e1" d="M 101.183594 45.664062 C 101.164062 45.695312 101.167969 45.707031 101.183594 45.664062 Z M 101.183594 45.664062 " fill-opacity="1" fill-rule="nonzero"/><path fill="#5b09e1" d="M 101.21875 45.445312 C 101.21875 45.5625 101.199219 45.625 101.183594 45.664062 C 101.21875 45.609375 101.316406 45.511719 101.628906 45.445312 C 102.320312 45.308594 101.976562 45.585938 102.320312 45.308594 C 102.664062 45.03125 102.113281 45.308594 102.664062 45.03125 C 103.21875 44.757812 103.082031 45.308594 103.21875 44.757812 C 103.359375 44.203125 103.015625 44.683594 103.21875 43.960938 C 103.429688 43.234375 103.152344 43.722656 103.429688 43.234375 C 103.703125 42.753906 103.496094 43.167969 103.703125 42.753906 C 103.910156 42.335938 103.164062 42.40625 103.164062 42.40625 C 103.164062 42.40625 103.011719 42.472656 102.664062 42.820312 C 102.316406 43.167969 101.628906 43.234375 101.351562 43.441406 C 101.074219 43.648438 101.351562 42.960938 101.074219 43.648438 C 100.796875 44.339844 100.9375 44.53125 101.074219 44.988281 C 101.21875 45.445312 101.21875 44.964844 101.21875 45.445312 Z M 101.21875 45.445312 " fill-opacity="1" fill-rule="nonzero"/><path fill="#5b09e1" d="M 109.097656 56.097656 C 108.753906 55.683594 108.886719 55.335938 108.265625 55.335938 C 107.644531 55.335938 107.644531 55.335938 107.644531 55.335938 C 107.644531 55.335938 106.957031 55.753906 106.890625 56.164062 C 106.820312 56.582031 106.375 56.375 106.457031 56.789062 C 106.539062 57.203125 105.890625 56.859375 106.457031 57.550781 C 107.023438 58.238281 107.371094 58.101562 107.648438 58.375 C 107.921875 58.652344 107.371094 59.066406 107.648438 59.207031 C 107.921875 59.34375 107.230469 59.691406 108.265625 59.207031 C 109.308594 58.722656 108.546875 59.414062 109.308594 58.722656 C 110.070312 58.03125 110 58.652344 110.070312 58.03125 C 110.140625 57.410156 110.554688 57.546875 110.070312 57.0625 C 109.582031 56.582031 109.445312 56.511719 109.097656 56.097656 Z M 109.097656 56.097656 " fill-opacity="1" fill-rule="nonzero"/><g clip-path="url(#2f448714bc)"><g clip-path="url(#c6465ce73e)"><g clip-path="url(#fcbb18e422)"><path fill="#11a3bb" d="M 166.992188 39.011719 C 147.453125 32.351562 126.214844 42.792969 119.554688 62.332031 C 110.816406 87.980469 130.15625 147.089844 130.15625 147.089844 C 130.15625 147.089844 181.570312 112.09375 190.3125 86.445312 C 196.96875 66.90625 186.53125 45.667969 166.992188 39.011719 " fill-opacity="1" fill-rule="nonzero"/></g></g></g><g clip-path="url(#378cd932f7)"><g clip-path="url(#edd4553632)"><g clip-path="url(#31a267a3b1)"><path fill="#ffffff" d="M 176.292969 81.667969 C 172.273438 93.464844 159.449219 99.769531 147.652344 95.75 C 135.859375 91.726562 129.554688 78.90625 133.574219 67.109375 C 137.59375 55.3125 150.417969 49.007812 162.214844 53.027344 C 174.011719 57.046875 180.316406 69.871094 176.292969 81.667969 " fill-opacity="1" fill-rule="nonzero"/></g></g></g></svg>